<?xml version="1.0" encoding="UTF-8" standalone="no"?><!DOCTYPE svg PUBLIC "-//W3C//DTD SVG 1.1//EN" "http://www.w3.org/Graphics/SVG/1.1/DTD/svg11.dtd"><svg width="100%" height="100%" viewBox="0 0 720 720" version="1.1" xmlns="http://www.w3.org/2000/svg" xmlns:xlink="http://www.w3.org/1999/xlink" xml:space="preserve" xmlns:serif="http://www.serif.com/" style="fill-rule:evenodd;clip-rule:evenodd;stroke-linejoin:round;stroke-miterlimit:2;background:transparent;"><g fill="#8fbd5a"><path d="M56.666,97.439l46.26,0l0,252.325l76.118,0l0,42.054l-122.378,0l0,-294.38Z" style="fill-rule:nonzero;"/><path d="M238.761,97.439l62.661,0l47.942,294.38l-46.26,0l-8.411,-58.455l0,0.841l-52.568,0l-8.411,57.614l-42.895,0l47.942,-294.38Zm50.465,196.814l-20.607,-145.508l-0.841,0l-20.186,145.508l41.634,0Z" style="fill-rule:nonzero;"/><path d="M430.528,396.024c-22.429,0 -39.391,-6.378 -50.886,-19.135c-11.495,-12.756 -17.242,-31.05 -17.242,-54.881l0,-16.822l43.736,0l0,20.186c0,19.065 7.99,28.597 23.971,28.597c7.85,0 13.808,-2.313 17.873,-6.939c4.065,-4.626 6.098,-12.126 6.098,-22.499c0,-12.336 -2.804,-23.2 -8.411,-32.592c-5.607,-9.392 -15.981,-20.677 -31.12,-33.854c-19.065,-16.822 -32.382,-32.031 -39.952,-45.629c-7.57,-13.598 -11.355,-28.947 -11.355,-46.049c0,-23.27 5.888,-41.283 17.663,-54.04c11.775,-12.756 28.877,-19.135 51.306,-19.135c22.149,0 38.9,6.378 50.255,19.135c11.355,12.756 17.032,31.05 17.032,54.881l0,12.196l-43.736,0l0,-15.14c0,-10.093 -1.963,-17.453 -5.888,-22.078c-3.925,-4.626 -9.672,-6.939 -17.242,-6.939c-15.42,0 -23.13,9.392 -23.13,28.176c0,10.654 2.874,20.607 8.621,29.859c5.747,9.252 16.191,20.466 31.33,33.643c19.345,16.822 32.662,32.101 39.952,45.839c7.289,13.738 10.934,29.859 10.934,48.362c0,24.111 -5.958,42.615 -17.873,55.512c-11.915,12.897 -29.228,19.345 -51.937,19.345Z" style="fill-rule:nonzero;"/><path d="M526.833,97.439l46.26,0l0,119.855l49.624,0l0,-119.855l46.26,0l0,294.38l-46.26,0l0,-132.471l-49.624,0l0,132.471l-46.26,0l0,-294.38Z" style="fill-rule:nonzero;"/><path d="M99.13,626.767c-15.837,0 -27.814,-4.504 -35.931,-13.511c-8.117,-9.007 -12.175,-21.925 -12.175,-38.752l0,-11.878l30.883,0l0,14.254c0,13.462 5.642,20.193 16.926,20.193c5.543,0 9.75,-1.633 12.62,-4.9c2.871,-3.266 4.306,-8.562 4.306,-15.887c0,-8.711 -1.98,-16.382 -5.939,-23.014c-3.959,-6.632 -11.284,-14.6 -21.974,-23.904c-13.462,-11.878 -22.865,-22.618 -28.21,-32.219c-5.345,-9.601 -8.018,-20.44 -8.018,-32.516c0,-16.431 4.157,-29.151 12.472,-38.158c8.315,-9.007 20.391,-13.511 36.228,-13.511c15.639,0 27.468,4.504 35.485,13.511c8.018,9.007 12.026,21.925 12.026,38.752l0,8.612l-30.883,0l0,-10.69c0,-7.127 -1.386,-12.323 -4.157,-15.59c-2.772,-3.266 -6.83,-4.9 -12.175,-4.9c-10.888,0 -16.332,6.632 -16.332,19.896c0,7.523 2.029,14.551 6.087,21.083c4.058,6.533 11.433,14.452 22.123,23.756c13.66,11.878 23.063,22.667 28.21,32.367c5.147,9.7 7.721,21.083 7.721,34.149c0,17.025 -4.207,30.091 -12.62,39.197c-8.414,9.106 -20.638,13.66 -36.673,13.66Z" style="fill-rule:nonzero;"/><path d="M192.669,445.628l-34.149,0l0,-29.695l100.963,0l0,29.695l-34.149,0l0,178.17l-32.664,0l0,-178.17Z" style="fill-rule:nonzero;"/><path d="M322.733,626.767c-15.837,0 -27.913,-4.504 -36.228,-13.511c-8.315,-9.007 -12.472,-21.925 -12.472,-38.752l0,-158.571l32.664,0l0,160.947c0,7.127 1.435,12.274 4.306,15.441c2.871,3.167 6.978,4.751 12.323,4.751c5.345,0 9.453,-1.584 12.323,-4.751c2.871,-3.167 4.306,-8.315 4.306,-15.441l0,-160.947l31.477,0l0,158.571c0,16.827 -4.157,29.744 -12.472,38.752c-8.315,9.007 -20.391,13.511 -36.228,13.511Z" style="fill-rule:nonzero;"/><path d="M394.595,415.933l49.887,0c16.233,0 28.408,4.355 36.525,13.066c8.117,8.711 12.175,21.479 12.175,38.306l0,105.12c0,16.827 -4.058,29.596 -12.175,38.306c-8.117,8.711 -20.292,13.066 -36.525,13.066l-49.887,0l0,-207.865Zm49.294,178.17c5.345,0 9.453,-1.584 12.323,-4.751c2.871,-3.167 4.306,-8.315 4.306,-15.441l0,-108.09c0,-7.127 -1.435,-12.274 -4.306,-15.441c-2.871,-3.167 -6.978,-4.751 -12.323,-4.751l-16.629,0l0,148.475l16.629,0Z" style="fill-rule:nonzero;"/><rect x="515.156" y="415.933" width="32.664" height="207.865" style="fill-rule:nonzero;"/><path d="M619.385,626.767c-16.035,0 -28.309,-4.553 -36.822,-13.66c-8.513,-9.106 -12.769,-21.974 -12.769,-38.603l0,-109.277c0,-16.629 4.256,-29.497 12.769,-38.603c8.513,-9.106 20.786,-13.66 36.822,-13.66c16.035,0 28.309,4.553 36.822,13.66c8.513,9.106 12.769,21.974 12.769,38.603l0,109.277c0,16.629 -4.256,29.497 -12.769,38.603c-8.513,9.106 -20.786,13.66 -36.822,13.66Zm0,-29.695c11.284,0 16.926,-6.83 16.926,-20.49l0,-113.435c0,-13.66 -5.642,-20.49 -16.926,-20.49c-11.284,0 -16.926,6.83 -16.926,20.49l0,113.435c0,13.66 5.642,20.49 16.926,20.49Z" style="fill-rule:nonzero;"/></g></svg>